<svg width="97" height="79" viewBox="0 0 97 79" fill="none" xmlns="http://www.w3.org/2000/svg">
<path d="M72.662 53.7167V29.3583C72.662 15.9056 61.7564 5 48.3036 5V5C34.8509 5 23.9453 15.9056 23.9453 29.3583V53.7167" stroke="white" stroke-width="9.61076"/>
<path d="M72.663 45.5966L72.663 55.0693C72.663 60.3009 76.9041 64.542 82.1357 64.542V64.542C87.3673 64.542 91.6084 60.3009 91.6084 55.0693L91.6084 45.5966" stroke="white" stroke-width="9.61076"/>
<path d="M58.2969 78.2825L58.2969 63.8479C58.2969 58.3288 53.8228 53.8547 48.3037 53.8547V53.8547C42.7846 53.8547 38.3105 58.3288 38.3105 63.8479L38.3105 78.2825" stroke="white" stroke-width="9.61076"/>
<path d="M4.99994 45.5966L4.99994 55.0693C4.99994 60.3009 9.24101 64.542 14.4726 64.542V64.542C19.7042 64.542 23.9453 60.3009 23.9453 55.0693L23.9453 45.5966" stroke="white" stroke-width="9.61076"/>
<path fill-rule="evenodd" clip-rule="evenodd" d="M48.3069 40.1827C52.7912 40.1827 56.4264 36.5475 56.4264 32.0633C56.4264 27.579 52.7912 23.9438 48.3069 23.9438C43.8227 23.9438 40.1875 27.579 40.1875 32.0633C40.1875 32.8954 40.3127 33.6982 40.5452 34.454C41.1817 33.0441 42.5999 32.0629 44.2472 32.0629C46.4893 32.0629 48.3069 33.8805 48.3069 36.1226C48.3069 37.7701 47.3256 39.1884 45.9155 39.8248C46.6715 40.0575 47.4746 40.1827 48.3069 40.1827Z" fill="white"/>
</svg>
